HIERARCHY
ROOT SimulationBone
{
	OFFSET 0.000000 0.000000 0.000000
	CHANNELS 6 Xposition Yposition Zposition Zrotation Yrotation Xrotation 
	JOINT Hips
	{
		OFFSET 0.000000 0.000000 0.000000
		CHANNELS 6 Xposition Yposition Zposition Zrotation Yrotation Xrotation 
		JOINT RightUpLeg
		{
			OFFSET 0.103461 1.857818 10.548512
			CHANNELS 3 Zrotation Yrotation Xrotation
			JOINT RightLeg
			{
				OFFSET 43.500000 -0.000019 0.000004
				CHANNELS 3 Zrotation Yrotation Xrotation
				JOINT RightFoot
				{
					OFFSET 42.372200 0.000011 0.000000
					CHANNELS 3 Zrotation Yrotation Xrotation
					JOINT RightToe
					{
						OFFSET 17.300009 0.000002 0.000004
						CHANNELS 3 Zrotation Yrotation Xrotation
						End Site
						{
							OFFSET 0.000000 0.000000 0.000000
						}
					}
				}
			}
		}
		JOINT LeftUpLeg
		{
			OFFSET 0.103461 1.857838 -10.548504
			CHANNELS 3 Zrotation Yrotation Xrotation
			JOINT LeftLeg
			{
				OFFSET 43.500042 -0.000038 0.000017
				CHANNELS 3 Zrotation Yrotation Xrotation
				JOINT LeftFoot
				{
					OFFSET 42.372253 -0.000008 0.000015
					CHANNELS 3 Zrotation Yrotation Xrotation
					JOINT LeftToe
					{
						OFFSET 17.299995 -0.000004 0.000004
						CHANNELS 3 Zrotation Yrotation Xrotation
						End Site
						{
							OFFSET 0.000000 0.000000 0.000000
						}
					}
				}
			}
		}
		JOINT Spine
		{
			OFFSET 6.901970 -2.603733 -0.000002
			CHANNELS 3 Zrotation Yrotation Xrotation
			JOINT Spine1
			{
				OFFSET 12.588097 0.000016 0.000005
				CHANNELS 3 Zrotation Yrotation Xrotation
				JOINT Spine2
				{
					OFFSET 12.343206 -0.000008 -0.000008
					CHANNELS 3 Zrotation Yrotation Xrotation
					JOINT Neck
					{
						OFFSET 25.832890 -0.000023 0.000008
						CHANNELS 3 Zrotation Yrotation Xrotation
						JOINT Head
						{
							OFFSET 11.766625 0.000019 -0.000006
							CHANNELS 3 Zrotation Yrotation Xrotation
							End Site
							{
								OFFSET 0.000000 0.000000 0.000000
							}
						}
					}
					JOINT RightShoulder
					{
						OFFSET 19.745903 -1.480385 6.000111
						CHANNELS 3 Zrotation Yrotation Xrotation
						JOINT RightArm
						{
							OFFSET 11.284122 -0.000021 -0.000025
							CHANNELS 3 Zrotation Yrotation Xrotation
							JOINT RightForeArm
							{
								OFFSET 33.000057 -0.000001 0.000032
								CHANNELS 3 Zrotation Yrotation Xrotation
								JOINT RightHand
								{
									OFFSET 25.200003 0.000023 0.000006
									CHANNELS 3 Zrotation Yrotation Xrotation
									End Site
									{
										OFFSET 0.000000 0.000000 0.000000
									}
								}
							}
						}
					}
					JOINT LeftShoulder
					{
						OFFSET 19.746098 -1.480366 -6.000072
						CHANNELS 3 Zrotation Yrotation Xrotation
						JOINT LeftArm
						{
							OFFSET 11.284136 -0.000004 -0.000006
							CHANNELS 3 Zrotation Yrotation Xrotation
							JOINT LeftForeArm
							{
								OFFSET 33.000092 0.000029 0.000002
								CHANNELS 3 Zrotation Yrotation Xrotation
								JOINT LeftHand
								{
									OFFSET 25.199776 0.000140 0.000420
									CHANNELS 3 Zrotation Yrotation Xrotation
									End Site
									{
										OFFSET 0.000000 0.000000 0.000000
									}
								}
							}
						}
					}
				}
			}
		}
	}
}
MOTION
Frames: 5
Frame Time: 0.033333
210.078670 0.000000 312.817750 180.000000 87.089498 180.000000 1.640118 92.689049 0.042062 94.657654 1.166940 178.165796 -178.908869 -2.403580 -177.591598 -15.667575 -1.669746 -0.595430 83.989504 0.429484 -0.166911 21.454558 0.003102 0.000017 -176.366563 1.019315 -176.947580 -9.446413 2.467862 1.919175 81.501806 -1.347262 0.251093 21.454550 -0.003089 0.000000 6.602101 0.452766 -0.216844 3.189752 0.911307 -0.421341 2.871632 0.908606 -0.426846 15.348618 -5.578446 2.506846 -17.787129 -0.959965 2.880996 -175.653696 -73.400444 -5.847455 -1.026419 59.008962 28.129349 -41.736919 -22.656917 2.034540 -0.917667 -14.203129 29.639295 -148.427223 75.856955 33.737446 -10.098183 -59.383222 -25.535880 -42.465069 22.246640 -2.000552 -11.221709 18.398436 -23.548124 
210.088632 0.000000 312.752834 180.000000 87.661758 180.000000 1.627521 92.690102 0.104457 94.630439 1.061973 178.958530 -178.919305 -2.427907 -177.499036 -15.604599 -1.675605 -0.517601 83.960940 0.370673 -0.190477 21.454560 0.003115 0.000017 -176.341865 0.995492 -176.819350 -9.449264 2.460715 1.980812 81.579732 -1.396137 0.222775 21.454553 -0.003097 -0.000001 6.582924 0.463349 -0.271332 3.150946 0.933839 -0.530189 2.832836 0.930482 -0.535830 15.286170 -5.309541 2.981028 -18.062210 -1.493312 3.589430 -176.301990 -73.314076 -5.180877 -1.261670 59.456701 30.858262 -38.307369 -21.439115 1.860419 1.489594 -12.974503 26.237011 -148.871432 75.931274 33.281408 -10.343698 -61.027979 -28.734941 -38.615318 21.360804 -1.836202 -9.783331 15.008352 -23.270069 
210.119816 0.000000 312.697029 180.000000 88.156338 180.000000 1.618148 92.693108 0.131118 94.559758 0.956353 179.573429 -178.944905 -2.427397 -177.397402 -15.509502 -1.697823 -0.505189 83.922166 0.357119 -0.215617 21.454560 0.003105 0.000016 -176.394157 0.995402 -176.770432 -9.488086 2.449915 2.030275 81.656742 -1.434799 0.201623 21.454557 -0.003095 0.000000 6.554409 0.468609 -0.298142 3.093667 0.944915 -0.583896 2.775541 0.941240 -0.589597 15.340187 -5.102259 3.366758 -18.348036 -1.792133 4.124025 -176.550800 -73.142659 -4.923260 -1.096663 59.365347 33.179225 -36.027537 -20.180306 1.720985 4.295572 -10.800940 23.085257 -149.356880 76.115772 32.779820 -10.346260 -62.303121 -31.278633 -35.077512 20.212620 -1.673545 -6.550591 11.276224 -19.982062 
210.171028 0.000000 312.650320 180.000000 88.575099 180.000000 1.616488 92.692146 0.126409 94.521112 0.867120 -179.981902 -178.937391 -2.410792 -177.304963 -15.445214 -1.712435 -0.545080 83.908621 0.377358 -0.252049 21.454558 0.003115 0.000020 -176.446162 1.010102 -176.763083 -9.569605 2.449233 2.045663 81.740255 -1.451566 0.173663 21.454550 -0.003089 0.000001 6.537828 0.479354 -0.285988 3.060572 0.966011 -0.559441 2.742444 0.962466 -0.565258 15.470729 -5.068483 3.639530 -18.612081 -1.960819 4.490826 -176.919918 -72.876500 -4.540613 -1.202291 58.692833 35.491664 -34.132310 -18.745145 1.583621 6.854973 -7.832165 19.512655 -150.146519 76.303383 31.967857 -10.474837 -63.176695 -32.972021 -31.453267 18.750046 -1.499051 -2.693354 7.341364 -14.410936 
210.241079 0.000000 312.612692 180.000000 88.919990 180.000000 1.623101 92.683739 0.104229 94.548983 0.808943 -179.647242 -178.902503 -2.405801 -177.215624 -15.476140 -1.714885 -0.603590 83.946952 0.408068 -0.299584 21.454558 0.003099 0.000016 -176.442952 1.012002 -176.733344 -9.668740 2.457365 2.023488 81.825994 -1.445456 0.132258 21.454553 -0.003095 -0.000002 6.541238 0.499438 -0.253849 3.067566 1.005365 -0.494623 2.749434 1.002218 -0.500681 15.612479 -5.153390 3.857115 -18.717707 -2.150942 4.802466 -177.725019 -72.596161 -3.709447 -1.781384 57.838561 37.888507 -32.115939 -17.425983 1.454436 8.446220 -4.679867 17.009266 -151.373685 76.435500 30.711283 -10.977922 -63.564097 -34.038067 -27.690574 16.927205 -1.309941 0.454429 3.704011 -8.228476 
